<svg width="1024" height="1024" viewBox="0 0 1024 1024" xmlns="http://www.w3.org/2000/svg">
  <defs>
    <linearGradient id="mbg" x1="0" y1="0" x2="0" y2="1">
      <stop offset="0" stop-color="#10362b"/>
      <stop offset="1" stop-color="#072019"/>
    </linearGradient>
    <radialGradient id="mglow" cx="0.62" cy="0.55" r="0.55">
      <stop offset="0" stop-color="#ffd98a" stop-opacity="0.6"/>
      <stop offset="0.55" stop-color="#ffd98a" stop-opacity="0.14"/>
      <stop offset="1" stop-color="#ffd98a" stop-opacity="0"/>
    </radialGradient>
    <linearGradient id="mcone" x1="0" y1="0" x2="0" y2="1">
      <stop offset="0" stop-color="#ffe9b8" stop-opacity="0.9"/>
      <stop offset="1" stop-color="#ffe9b8" stop-opacity="0.04"/>
    </linearGradient>
  </defs>

  <rect width="1024" height="1024" rx="232" fill="url(#mbg)"/>

  <!-- scene scaled up + centred (no wordmark) -->
  <g transform="translate(512 560) scale(1.34) translate(-512 -700)">
    <circle cx="640" cy="630" r="360" fill="url(#mglow)"/>

    <rect x="150" y="806" width="724" height="44" rx="22" fill="#0c4234"/>
    <rect x="150" y="806" width="724" height="15" rx="7" fill="#176b52"/>

    <polygon points="604,598 656,612 686,808 470,808" fill="url(#mcone)"/>

    <polygon points="428,796 540,760 540,800 428,804" fill="#f3efe1"/>
    <polygon points="652,796 540,760 540,800 652,804" fill="#fbf8ee"/>
    <line x1="540" y1="762" x2="540" y2="800" stroke="#cdc6b0" stroke-width="4"/>
    <g stroke="#d8b27a" stroke-width="6" stroke-linecap="round" opacity="0.85">
      <line x1="566" y1="776" x2="636" y2="786"/>
      <line x1="566" y1="788" x2="628" y2="796"/>
    </g>

    <path d="M232,808 L232,640 C232,580 262,548 326,548 C366,548 392,562 404,602 L416,654 L448,808 Z" fill="#2e8b6c"/>
    <ellipse cx="392" cy="612" rx="35" ry="31" transform="rotate(-22 392 612)" fill="#f1c9a6"/>
    <path d="M326,548 C284,556 256,584 252,628 C300,600 352,592 402,606 C398,572 372,550 326,548 Z" fill="#21302a"/>
    <path d="M398,606 C436,614 476,694 506,772 L474,792 C446,724 410,668 376,632 Z" fill="#2e8b6c"/>
    <ellipse cx="498" cy="784" rx="22" ry="16" transform="rotate(20 498 784)" fill="#f1c9a6"/>

    <g fill="none" stroke="#34d399" stroke-width="17" stroke-linecap="round" stroke-linejoin="round">
      <path d="M748,792 L748,646 L632,562"/>
    </g>
    <ellipse cx="752" cy="800" rx="50" ry="13" fill="#0c4234"/>
    <ellipse cx="752" cy="796" rx="50" ry="13" fill="#15604a"/>
    <circle cx="748" cy="646" r="13" fill="#34d399"/>
    <path d="M600,544 L676,524 L704,576 L628,600 Z" fill="#34d399"/>
    <path d="M612,576 L688,556 L700,578 L624,598 Z" fill="#ffe9b8"/>
  </g>
</svg>
